<?xml version="1.0" encoding="UTF-8" standalone="no"?>
<svg
   width="443"
   zoomAndPan="magnify"
   viewBox="0 0 332.25 204.74999"
   height="273"
   preserveAspectRatio="xMidYMid"
   version="1.0"
   id="svg61"
   sodipodi:docname="fav.svg"
   inkscape:version="1.4 (86a8ad7, 2024-10-11)"
   xmlns:inkscape="http://www.inkscape.org/namespaces/inkscape"
   xmlns:sodipodi="http://sodipodi.sourceforge.net/DTD/sodipodi-0.dtd"
   xmlns="http://www.w3.org/2000/svg"
   xmlns:svg="http://www.w3.org/2000/svg">
  <defs
     id="defs61" />
  <sodipodi:namedview
     id="namedview61"
     pagecolor="#505050"
     bordercolor="#ffffff"
     borderopacity="1"
     inkscape:showpageshadow="0"
     inkscape:pageopacity="0"
     inkscape:pagecheckerboard="1"
     inkscape:deskcolor="#505050"
     inkscape:zoom="2.212"
     inkscape:cx="249.32188"
     inkscape:cy="151.22061"
     inkscape:window-width="1920"
     inkscape:window-height="1027"
     inkscape:window-x="1358"
     inkscape:window-y="-8"
     inkscape:window-maximized="1"
     inkscape:current-layer="svg61" />
  <path
     stroke-linecap="butt"
     fill="none"
     stroke-linejoin="miter"
     d="m 144.8602,58.926493 1.54687,2.921873"
     stroke="#0a6a8c"
     stroke-width="1.50007"
     stroke-opacity="1"
     stroke-miterlimit="4"
     id="path1" />
  <path
     stroke-linecap="butt"
     fill="none"
     stroke-linejoin="miter"
     d="m 185.78205,135.21941 c -3.40234,0.043 -17.33593,-0.84374 -19.34764,0.46485 -0.31641,0.20313 -0.47266,0.4961 -0.46484,0.875 l 0.46484,17.03124 c 0.004,0.10937 -0.0352,0.20313 -0.10938,0.28516 -0.0781,0.082 -0.17187,0.12109 -0.28125,0.125 l -16.0703,0.11719 c -0.25391,0 -0.46875,-0.0859 -0.64843,-0.26172 -0.1797,-0.17969 -0.26954,-0.39453 -0.26954,-0.64453 l -0.0313,-14.40625"
     stroke="#2b85cf"
     stroke-width="1.50007"
     stroke-opacity="1"
     stroke-miterlimit="4"
     id="path2" />
  <path
     stroke-linecap="butt"
     fill="none"
     stroke-linejoin="miter"
     d="m 149.02426,138.80535 c 8.55078,1.71876 15.99609,-2.38281 17.53515,-10.92577 0.63281,-3.5 -0.14844,-6.69922 -2.33984,-9.59374 -10.61718,-14.01562 -31.70702,0.36718 -20.8789,16.76561"
     stroke="#0a6a8c"
     stroke-width="1.50007"
     stroke-opacity="1"
     stroke-miterlimit="4"
     id="path3" />
  <path
     stroke-linecap="butt"
     fill="none"
     stroke-linejoin="miter"
     d="m 143.34067,135.05145 -15.28905,0.0195"
     stroke="#2b85cf"
     stroke-width="1.50007"
     stroke-opacity="1"
     stroke-miterlimit="4"
     id="path4" />
  <path
     stroke-linecap="butt"
     fill="none"
     stroke-linejoin="miter"
     d="m 126.46959,131.84442 5.49218,-4.59765 c 0.14063,-0.11719 0.25391,-0.26172 0.33984,-0.42578 0.0859,-0.16406 0.13672,-0.33985 0.15235,-0.52344 0.0156,-0.1836 -0.004,-0.36719 -0.0586,-0.54297 -0.0586,-0.17578 -0.14453,-0.33594 -0.26563,-0.47656 L 107.84461,96.078815"
     stroke="#7a7f62"
     stroke-width="1.50007"
     stroke-opacity="1"
     stroke-miterlimit="4"
     id="path5" />
  <path
     stroke-linecap="butt"
     fill="none"
     stroke-linejoin="miter"
     d="m 89.633672,62.649146 -1.37891,-3.195313"
     stroke="#0a6a8c"
     stroke-width="1.50007"
     stroke-opacity="1"
     stroke-miterlimit="4"
     id="path6" />
  <path
     stroke-linecap="butt"
     fill="none"
     stroke-linejoin="miter"
     d="m 190.18049,143.50848 -0.39844,9.63671 c -0.008,0.15625 0.0195,0.30468 0.0743,0.44922 0.0586,0.14453 0.14453,0.27343 0.25391,0.3789 0.11329,0.10938 0.24219,0.18751 0.39063,0.24219 0.14453,0.0508 0.29688,0.0703 0.44921,0.0586 l 5.32813,-0.39843"
     stroke="#2b85cf"
     stroke-width="1.50007"
     stroke-opacity="1"
     stroke-miterlimit="4"
     id="path7" />
  <path
     stroke-linecap="butt"
     fill="none"
     stroke-linejoin="miter"
     d="m 196.27814,153.87566 c 1.32031,0.59766 2.1875,0.89453 2.60156,0.89453 13.55468,-0.0625 26.92968,-0.0156 40.12498,0.13671"
     stroke="#3157bc"
     stroke-width="1.50007"
     stroke-opacity="1"
     stroke-miterlimit="4"
     id="path8" />
  <path
     stroke-linecap="butt"
     fill="none"
     stroke-linejoin="miter"
     d="m 239.00468,154.9069 c -0.51953,16.45703 -0.5586,30.49217 -0.11719,42.10545 0.12109,3.29688 0.10547,5.6914 -0.043,7.18359"
     stroke="#a16b92"
     stroke-width="1.50007"
     stroke-opacity="1"
     stroke-miterlimit="4"
     id="path9" />
  <path
     stroke-linecap="butt"
     fill="none"
     stroke-linejoin="miter"
     d="m 308.34839,140.10223 -3.1836,-1.63281"
     stroke="#80514f"
     stroke-width="1.50007"
     stroke-opacity="1"
     stroke-miterlimit="4"
     id="path10" />
  <path
     stroke-linecap="butt"
     fill="none"
     stroke-linejoin="miter"
     d="m 39.715735,204.59438 -2.847658,-3.54297"
     stroke="#80514f"
     stroke-width="1.50007"
     stroke-opacity="1"
     stroke-miterlimit="4"
     id="path11" />
  <path
     stroke-linecap="butt"
     fill="none"
     stroke-linejoin="miter"
     d="m 149.02426,138.80535 c 0.86328,-5.17577 -2.91015,-3.28124 -5.68359,-3.7539"
     stroke="#3157bc"
     stroke-width="1.50007"
     stroke-opacity="1"
     stroke-miterlimit="4"
     id="path12" />
  <path
     stroke-linecap="butt"
     fill="none"
     stroke-linejoin="miter"
     d="m 36.172766,117.18818 c -2.812496,2.00391 -2.949219,4.1914 -0.414063,6.57031"
     stroke="#80514f"
     stroke-width="1.50007"
     stroke-opacity="1"
     stroke-miterlimit="4"
     id="path13" />
  <path
     stroke-linecap="butt"
     fill="none"
     stroke-linejoin="miter"
     d="m 35.200109,142.88738 c -0.484372,0.625 -1.101559,1.12891 -1.85547,1.51563"
     stroke="#80514f"
     stroke-width="1.50007"
     stroke-opacity="1"
     stroke-miterlimit="4"
     id="path14" />
  <path
     stroke-linecap="butt"
     fill="none"
     stroke-linejoin="miter"
     d="m 306.66089,203.71938 c -1.17187,-0.50391 -2.55468,-0.62891 -4.14453,-0.36719"
     stroke="#80514f"
     stroke-width="1.50007"
     stroke-opacity="1"
     stroke-miterlimit="4"
     id="path15" />
  <path
     stroke-linecap="butt"
     fill="none"
     stroke-linejoin="miter"
     d="m 239.00468,154.9069 c 14.29296,0.17579 28.41795,0.19923 42.37888,0.0743 2.16406,-0.0195 2.06641,-1.25391 1.6875,-2.94141"
     stroke="#80514f"
     stroke-width="1.50007"
     stroke-opacity="1"
     stroke-miterlimit="4"
     id="path16" />
  <path
     stroke-linecap="butt"
     fill="none"
     stroke-linejoin="miter"
     d="m 196.01251,153.4616 c -0.008,0.14844 0.082,0.28515 0.26563,0.41406"
     stroke="#0a6a8c"
     stroke-width="1.50007"
     stroke-opacity="1"
     stroke-miterlimit="4"
     id="path17" />
  <path
     stroke-linecap="butt"
     fill="none"
     stroke-linejoin="miter"
     d="m 281.57497,151.57488 c -0.0195,0.0352 -0.043,0.0743 -0.0625,0.11719 -0.0352,0.082 -0.0977,0.125 -0.19141,0.125 -27.76951,0.11327 -55.53512,0.13671 -83.30463,0.0743 -0.33594,0 -0.53907,0.16406 -0.60157,0.49609 l -0.15625,0.78907 c -0.0508,0.2539 -0.10547,0.25781 -0.17187,0.0117 -0.0898,-0.35156 -0.25,-0.53906 -0.48438,-0.55859"
     stroke="#40407d"
     stroke-width="1.50007"
     stroke-opacity="1"
     stroke-miterlimit="4"
     id="path18" />
  <path
     stroke-linecap="butt"
     fill="none"
     stroke-linejoin="miter"
     d="m 123.77037,45.028066 c 0,-0.867188 -0.0859,-1.730469 -0.25391,-2.582034 -0.17187,-0.851557 -0.42187,-1.679683 -0.7539,-2.480464 -0.33203,-0.804688 -0.74219,-1.566406 -1.22266,-2.289063 -0.48437,-0.722657 -1.03125,-1.390621 -1.64844,-2.003908 -0.61328,-0.617187 -1.28124,-1.164059 -2.0039,-1.64843 -0.72265,-0.480471 -1.48437,-0.890627 -2.28906,-1.222659 -0.80078,-0.332032 -1.62891,-0.582033 -2.48047,-0.753903 -0.85547,-0.16797 -1.71484,-0.253909 -2.58203,-0.253909 -0.87109,0 -1.73047,0.08594 -2.58202,0.253909 -0.85157,0.17187 -1.6797,0.421871 -2.48438,0.753903 -0.80078,0.332032 -1.5664,0.742188 -2.28516,1.222659 -0.72265,0.484371 -1.39453,1.031243 -2.00781,1.64843 -0.61328,0.613287 -1.16406,1.281251 -1.644528,2.003908 -0.48437,0.722657 -0.89062,1.484375 -1.22265,2.289063 -0.33203,0.800781 -0.58594,1.628907 -0.75391,2.480464 -0.16797,0.851565 -0.25391,1.714846 -0.25391,2.582034 0,0.871088 0.0859,1.730469 0.25391,2.582026 0.16797,0.851565 0.42188,1.679692 0.75391,2.484372 0.33203,0.80078 0.73828,1.562499 1.22265,2.285156 0.480468,0.722656 1.031248,1.390628 1.644528,2.007815 0.61328,0.61328 1.28516,1.160151 2.00781,1.64453 0.71876,0.484372 1.48438,0.890619 2.28516,1.222652 0.80468,0.332032 1.63281,0.58594 2.48438,0.75391 0.85155,0.16797 1.71093,0.253901 2.58202,0.253901 0.86719,0 1.72656,-0.08593 2.58203,-0.253901 0.85156,-0.16797 1.67969,-0.421878 2.48047,-0.75391 0.80469,-0.332033 1.56641,-0.73828 2.28906,-1.222652 0.72266,-0.484379 1.39062,-1.03125 2.0039,-1.64453 0.61719,-0.617187 1.16407,-1.285159 1.64844,-2.007815 0.48047,-0.722657 0.89063,-1.484376 1.22266,-2.285156 0.33203,-0.80468 0.58203,-1.632807 0.7539,-2.484372 0.16797,-0.851557 0.25391,-1.710938 0.25391,-2.582026"
     stroke="#0a6a8c"
     stroke-width="1.50007"
     stroke-opacity="1"
     stroke-miterlimit="4"
     id="path19" />
  <path
     stroke-linecap="butt"
     fill="none"
     stroke-linejoin="miter"
     d="m 145.18442,85.520225 c 0,-0.86718 -0.082,-1.726561 -0.25391,-2.582026 -0.16797,-0.851565 -0.41796,-1.679684 -0.7539,-2.480464 -0.33203,-0.804688 -0.73828,-1.566406 -1.22266,-2.289063 -0.48046,-0.722657 -1.03125,-1.390629 -1.64453,-2.003908 -0.61328,-0.617188 -1.28124,-1.164059 -2.0039,-1.648438 -0.72266,-0.480464 -1.48828,-0.890619 -2.28906,-1.222651 -0.80469,-0.332032 -1.62891,-0.582033 -2.48438,-0.750003 -0.85156,-0.17187 -1.71093,-0.257809 -2.58203,-0.257809 -0.86719,0 -1.72656,0.08594 -2.58203,0.257809 -0.85156,0.16797 -1.67969,0.417971 -2.48047,0.750003 -0.80468,0.332032 -1.5664,0.742187 -2.28905,1.222651 -0.72266,0.484379 -1.39063,1.03125 -2.00391,1.648438 -0.61328,0.613279 -1.16406,1.281251 -1.64453,2.003908 -0.48438,0.722657 -0.89063,1.484375 -1.22656,2.289063 -0.33203,0.80078 -0.58203,1.628899 -0.75,2.480464 -0.17188,0.855465 -0.25391,1.714846 -0.25391,2.582026 0,0.871096 0.082,1.730469 0.25391,2.582034 0.16797,0.851557 0.41797,1.679684 0.75,2.484372 0.33593,0.80078 0.74218,1.566406 1.22656,2.289063 0.48047,0.718749 1.03125,1.390621 1.64453,2.0039 0.61328,0.613287 1.28125,1.164067 2.00391,1.64453 0.72265,0.484379 1.48437,0.890627 2.28905,1.222659 0.80078,0.332032 1.62891,0.585941 2.48047,0.753903 0.85547,0.171878 1.71484,0.253909 2.58203,0.253909 0.8711,0 1.73047,-0.08203 2.58203,-0.253909 0.85547,-0.167962 1.67969,-0.421871 2.48438,-0.753903 0.80078,-0.332032 1.5664,-0.73828 2.28906,-1.222659 0.72266,-0.480463 1.39062,-1.031243 2.0039,-1.64453 0.61328,-0.613279 1.16407,-1.285151 1.64453,-2.0039 0.48438,-0.722657 0.89063,-1.488283 1.22266,-2.289063 0.33594,-0.804688 0.58593,-1.632815 0.7539,-2.484372 0.17188,-0.851565 0.25391,-1.710938 0.25391,-2.582034"
     stroke="#0a6a8c"
     stroke-width="1.50007"
     stroke-opacity="1"
     stroke-miterlimit="4"
     id="path20" />
  <path
     stroke-linecap="butt"
     fill="none"
     stroke-linejoin="miter"
     d="m 120.17272,45.028066 c 0,-0.632818 -0.0625,-1.26172 -0.1836,-1.882815 -0.125,-0.621095 -0.30859,-1.222652 -0.55078,-1.808592 -0.24219,-0.585934 -0.53906,-1.14062 -0.89062,-1.667969 -0.35156,-0.52734 -0.75391,-1.015619 -1.19922,-1.460936 -0.44922,-0.449218 -0.9375,-0.851558 -1.46485,-1.203121 -0.52734,-0.351563 -1.08202,-0.648441 -1.66796,-0.890627 -0.58594,-0.242185 -1.1875,-0.425778 -1.8086,-0.546871 -0.62109,-0.125001 -1.24999,-0.187501 -1.8828,-0.187501 -0.63282,0 -1.26172,0.06248 -1.88282,0.187501 -0.62109,0.121093 -1.22265,0.304686 -1.80859,0.546871 -0.58594,0.242186 -1.14062,0.539064 -1.66797,0.890627 -0.52734,0.351563 -1.01562,0.753903 -1.46484,1.203121 -0.44531,0.445317 -0.84765,0.933596 -1.19922,1.460936 -0.35156,0.527349 -0.64844,1.082035 -0.89062,1.667969 -0.24219,0.58594 -0.42578,1.187497 -0.55078,1.808592 -0.1211,0.621095 -0.1836,1.249997 -0.1836,1.882815 0,0.63281 0.0625,1.261713 0.1836,1.882808 0.125,0.621095 0.30859,1.226566 0.55078,1.808592 0.24218,0.585941 0.53906,1.144535 0.89062,1.667968 0.35157,0.527349 0.75391,1.015628 1.19922,1.464845 0.44922,0.445309 0.9375,0.847657 1.46484,1.19922 0.52735,0.351563 1.08203,0.648434 1.66797,0.890619 0.58594,0.242193 1.1875,0.425787 1.80859,0.550787 0.6211,0.121093 1.25,0.183593 1.88282,0.183593 0.63281,0 1.26171,-0.06248 1.8828,-0.183593 0.6211,-0.125 1.22266,-0.308594 1.8086,-0.550787 0.58594,-0.242185 1.14062,-0.539056 1.66796,-0.890619 0.52735,-0.351563 1.01563,-0.753911 1.46485,-1.19922 0.44531,-0.449217 0.84766,-0.937496 1.19922,-1.464845 0.35156,-0.523433 0.64843,-1.082027 0.89062,-1.667968 0.24219,-0.582026 0.42578,-1.187497 0.55078,-1.808592 0.1211,-0.621095 0.1836,-1.249998 0.1836,-1.882808"
     stroke="#0a6a8c"
     stroke-width="1.50007"
     stroke-opacity="1"
     stroke-miterlimit="4"
     id="path21" />
  <path
     stroke-linecap="butt"
     fill="none"
     stroke-linejoin="miter"
     d="m 141.60239,85.543664 c 0,-0.636718 -0.0625,-1.261713 -0.1875,-1.886716 -0.125,-0.621095 -0.30859,-1.226559 -0.55078,-1.8125 -0.24219,-0.585933 -0.53906,-1.140627 -0.89063,-1.667968 -0.35156,-0.527341 -0.7539,-1.015627 -1.20312,-1.464844 -0.44921,-0.449218 -0.93359,-0.84765 -1.46093,-1.199213 -0.52735,-0.355471 -1.08595,-0.652349 -1.67188,-0.894535 -0.58594,-0.242185 -1.1914,-0.425778 -1.8125,-0.550779 -0.62109,-0.121093 -1.25,-0.183593 -1.88281,-0.183593 -0.63672,0 -1.26172,0.06248 -1.88672,0.183593 -0.62109,0.125001 -1.22656,0.308594 -1.8125,0.550779 -0.58593,0.242186 -1.14062,0.539064 -1.66797,0.894535 -0.52734,0.351563 -1.01562,0.749995 -1.46484,1.199213 -0.44921,0.449217 -0.84765,0.937503 -1.19922,1.464844 -0.35156,0.527341 -0.65234,1.082035 -0.89453,1.667968 -0.24219,0.585941 -0.42578,1.191405 -0.54687,1.8125 -0.125,0.625003 -0.1875,1.249998 -0.1875,1.886716 0,0.63281 0.0625,1.26172 0.18359,1.882815 0.125,0.621095 0.30859,1.226559 0.55078,1.8125 0.24219,0.585933 0.54297,1.144528 0.89453,1.671868 0.35157,0.527349 0.75001,1.01172 1.19922,1.460937 0.44922,0.449217 0.9375,0.851565 1.46484,1.203128 0.52735,0.351563 1.08204,0.648434 1.66797,0.890627 0.58594,0.242185 1.19141,0.425778 1.8125,0.550779 0.625,0.125 1.25,0.183593 1.88672,0.183593 0.63281,0 1.26172,-0.05858 1.88281,-0.183593 0.6211,-0.125001 1.22656,-0.308594 1.8125,-0.550779 0.58593,-0.242193 1.14453,-0.539064 1.67188,-0.890627 0.52734,-0.351563 1.01172,-0.753911 1.46093,-1.203128 0.44922,-0.449217 0.85156,-0.933588 1.20312,-1.460937 0.35157,-0.52734 0.64844,-1.085935 0.89063,-1.671868 0.24219,-0.585941 0.42578,-1.191405 0.55078,-1.8125 0.125,-0.621095 0.1875,-1.250005 0.1875,-1.882815"
     stroke="#0a6a8c"
     stroke-width="1.50007"
     stroke-opacity="1"
     stroke-miterlimit="4"
     id="path22" />
  <path
     stroke-linecap="butt"
     fill="none"
     stroke-linejoin="miter"
     d="m 163.03988,126.01239 c 0,-0.63281 -0.0625,-1.25781 -0.1875,-1.87891 -0.12109,-0.62108 -0.30469,-1.22655 -0.54687,-1.8125 -0.2422,-0.58593 -0.54297,-1.14062 -0.89454,-1.66796 -0.35156,-0.52734 -0.74999,-1.01172 -1.19921,-1.46093 -0.44923,-0.44923 -0.9336,-0.84766 -1.46094,-1.19922 -0.52735,-0.35157 -1.08203,-0.65234 -1.66797,-0.89454 -0.58594,-0.24218 -1.1875,-0.42187 -1.8125,-0.54687 -0.62109,-0.125 -1.24609,-0.1875 -1.8789,-0.1875 -0.63672,0 -1.26172,0.0625 -1.88282,0.1875 -0.62109,0.125 -1.22656,0.30469 -1.81249,0.54687 -0.58594,0.2461 -1.14063,0.54297 -1.66797,0.89454 -0.52735,0.35156 -1.01172,0.74999 -1.46094,1.19922 -0.44921,0.44921 -0.84765,0.93359 -1.19922,1.46093 -0.35156,0.52734 -0.64843,1.08203 -0.89062,1.66796 -0.2461,0.58595 -0.42578,1.19142 -0.55078,1.8125 -0.125,0.6211 -0.1836,1.2461 -0.1836,1.87891 0,0.63672 0.0586,1.26172 0.1836,1.88282 0.125,0.62108 0.30468,1.22656 0.55078,1.81249 0.24219,0.58594 0.53906,1.14063 0.89062,1.66797 0.35157,0.52735 0.75001,1.01172 1.19922,1.46093 0.44922,0.44922 0.93359,0.84766 1.46094,1.19922 0.52734,0.35157 1.08203,0.64845 1.66797,0.89454 0.58593,0.24218 1.1914,0.42187 1.81249,0.54687 0.6211,0.125 1.2461,0.1875 1.88282,0.1875 0.63281,0 1.25781,-0.0625 1.8789,-0.1875 0.625,-0.125 1.22656,-0.30469 1.8125,-0.54687 0.58594,-0.24609 1.14062,-0.54297 1.66797,-0.89454 0.52734,-0.35156 1.01171,-0.75 1.46094,-1.19922 0.44922,-0.44921 0.84765,-0.93358 1.19921,-1.46093 0.35157,-0.52734 0.65234,-1.08203 0.89454,-1.66797 0.24218,-0.58593 0.42578,-1.19141 0.54687,-1.81249 0.125,-0.6211 0.1875,-1.2461 0.1875,-1.88282"
     stroke="#0a6a8c"
     stroke-width="1.50007"
     stroke-opacity="1"
     stroke-miterlimit="4"
     id="path23" />
  <path
     fill="#03989e"
     d="m 145.71562,58.494435 1.56581,2.935139 39.85702,73.704166 c -3.44399,0.0432 -17.54816,-0.84758 -19.5845,0.46696 -0.32028,0.20404 -0.47845,0.49834 -0.47054,0.87897 l 0.47054,17.10856 c 0.004,0.10987 -0.0356,0.20405 -0.11072,0.28645 -0.0791,0.0824 -0.17398,0.12165 -0.28469,0.12557 l -16.26705,0.11772 c -0.25701,0 -0.47448,-0.0863 -0.65637,-0.26291 -0.18189,-0.1805 -0.27283,-0.39632 -0.27283,-0.64745 l -0.0316,-14.47165 c 8.65545,1.72655 16.19191,-2.39363 17.74982,-10.97538 0.64055,-3.51589 -0.15026,-6.72963 -2.36849,-9.6373 -10.74716,-14.07925 -32.09519,0.36885 -21.13451,16.84173 l -15.47623,0.0196 -1.6014,-3.24121 5.55943,-4.61853 c 0.14234,-0.11772 0.25701,-0.2629 0.344,-0.42771 0.087,-0.16481 0.13839,-0.34139 0.15421,-0.52581 0.0158,-0.18443 -0.004,-0.36886 -0.0593,-0.54544 -0.0593,-0.17658 -0.1463,-0.33746 -0.26888,-0.47872 L 108.24685,95.815436 C 105.9693,91.373487 101.21651,82.48959 93.988472,69.171592 c -1.77142,-3.268677 -3.16325,-5.579903 -4.1755,-6.937601 l -1.39578,-3.209818 C 85.178802,53.303006 81.711082,46.616539 78.017982,38.960849 70.046578,22.436958 78.978822,19.843205 91.616032,14.310389 99.037822,11.06918 111.90832,-2.095782 118.85957,7.5101278 130.06541,23.041251 136.79128,42.33155 145.71562,58.494435 Z m -21.34803,-13.96153 c 0,-0.871125 -0.087,-1.738324 -0.25701,-2.593753 -0.17398,-0.855428 -0.42704,-1.687312 -0.76314,-2.491729 -0.33609,-0.80834 -0.75127,-1.573517 -1.23762,-2.299454 -0.49031,-0.725936 -1.04388,-1.396938 -1.66862,-2.013003 -0.62079,-0.61999 -1.29694,-1.169347 -2.02844,-1.655921 -0.7315,-0.48265 -1.50254,-0.894668 -2.31708,-1.228206 -0.81059,-0.333539 -1.64885,-0.584674 -2.51084,-0.757329 -0.86594,-0.168731 -1.73583,-0.255059 -2.61364,-0.255059 -0.88176,0 -1.75165,0.08633 -2.61364,0.255059 -0.86199,0.172655 -1.70025,0.42379 -2.51479,0.757329 -0.81058,0.333538 -1.58558,0.745556 -2.31313,1.228206 -0.7315,0.486574 -1.4116,1.035931 -2.03239,1.655921 -0.62079,0.616065 -1.17831,1.287067 -1.664658,2.013003 -0.49031,0.725937 -0.90153,1.491114 -1.23763,2.299454 -0.33609,0.804417 -0.59311,1.636301 -0.76313,2.491729 -0.17003,0.855429 -0.25702,1.722628 -0.25702,2.593753 0,0.875048 0.087,1.738324 0.25702,2.593752 0.17002,0.855428 0.42704,1.687313 0.76313,2.495654 0.3361,0.804416 0.74732,1.569593 1.23763,2.295529 0.486348,0.725937 1.043868,1.396938 1.664658,2.016927 0.62079,0.616066 1.30089,1.165423 2.03239,1.651997 0.72755,0.486574 1.50255,0.894668 2.31313,1.228207 0.81454,0.333538 1.6528,0.588598 2.51479,0.757328 0.86199,0.168732 1.73188,0.255059 2.61364,0.255059 0.87781,0 1.7477,-0.08633 2.61364,-0.255059 0.86199,-0.16873 1.70025,-0.42379 2.51084,-0.757328 0.81454,-0.333539 1.58558,-0.741633 2.31708,-1.228207 0.7315,-0.486574 1.40765,-1.035931 2.02844,-1.651997 0.62474,-0.619989 1.17831,-1.29099 1.66862,-2.016927 0.48635,-0.725936 0.90153,-1.491113 1.23762,-2.295529 0.3361,-0.808341 0.58916,-1.640226 0.76314,-2.495654 0.17002,-0.855428 0.25701,-1.718704 0.25701,-2.593752 z M 146.0438,85.20891 c 0,-0.871124 -0.083,-1.734401 -0.25701,-2.593752 -0.17003,-0.855429 -0.42309,-1.687313 -0.76314,-2.49173 -0.33609,-0.80834 -0.74732,-1.573517 -1.23762,-2.299454 -0.48635,-0.725937 -1.04387,-1.396937 -1.66466,-2.013003 -0.62079,-0.619989 -1.29694,-1.169346 -2.02844,-1.65592 -0.7315,-0.48265 -1.5065,-0.894668 -2.31709,-1.228208 -0.81453,-0.333538 -1.64884,-0.584673 -2.51479,-0.753404 -0.86198,-0.172655 -1.73188,-0.258983 -2.61364,-0.258983 -0.8778,0 -1.74769,0.08633 -2.60968,0.258983 -0.86594,0.168731 -1.70421,0.419866 -2.51479,0.753404 -0.81454,0.33354 -1.58558,0.745558 -2.31709,1.228208 -0.7315,0.486574 -1.40764,1.035931 -2.02843,1.65592 -0.62079,0.616066 -1.17832,1.287066 -1.66467,2.013003 -0.4903,0.725937 -0.90152,1.491114 -1.24158,2.299454 -0.33609,0.804417 -0.58915,1.636301 -0.75918,2.49173 -0.17397,0.859351 -0.25701,1.722628 -0.25701,2.593752 0,0.875048 0.083,1.738325 0.25701,2.593752 0.17003,0.855429 0.42309,1.687313 0.75918,2.495653 0.34006,0.804417 0.75128,1.573518 1.24158,2.299455 0.48635,0.722013 1.04388,1.396938 1.66467,2.013003 0.62079,0.616065 1.29693,1.169346 2.02843,1.651996 0.73151,0.486574 1.50255,0.894668 2.31709,1.228208 0.81058,0.333538 1.64885,0.588596 2.51083,0.757328 0.86595,0.172655 1.73584,0.255059 2.61364,0.255059 0.88176,0 1.75166,-0.0824 2.61364,-0.255059 0.86595,-0.168732 1.70026,-0.42379 2.51479,-0.757328 0.81059,-0.33354 1.58559,-0.741634 2.31709,-1.228208 0.7315,-0.48265 1.40765,-1.035931 2.02844,-1.651996 0.62079,-0.616065 1.17831,-1.29099 1.66466,-2.013003 0.4903,-0.725937 0.90153,-1.495038 1.23762,-2.299455 0.34005,-0.80834 0.59311,-1.640224 0.76314,-2.495653 0.17398,-0.855427 0.25701,-1.718704 0.25701,-2.593752 z m 0,0"
     fill-opacity="1"
     fill-rule="nonzero"
     id="path24"
     style="fill:#03989e;fill-opacity:1;stroke:#000000;stroke-width:1.00838;stroke-opacity:1" />
  <path
     fill="#103c79"
     d="m 123.7705,45.028128 c 0,0.871093 -0.0859,1.730468 -0.25391,2.582031 -0.17187,0.851562 -0.42187,1.679687 -0.75391,2.484375 -0.33203,0.800781 -0.74218,1.5625 -1.22265,2.285156 -0.48438,0.722656 -1.03125,1.390625 -1.64844,2.007812 -0.61328,0.613282 -1.28125,1.160157 -2.00391,1.644532 -0.72265,0.484375 -1.48437,0.890625 -2.28906,1.222656 -0.80078,0.332031 -1.6289,0.585938 -2.48047,0.753906 -0.85547,0.167969 -1.71484,0.253906 -2.58203,0.253906 -0.87109,0 -1.73047,-0.08594 -2.58203,-0.253906 -0.85156,-0.167968 -1.67969,-0.421875 -2.48437,-0.753906 -0.80078,-0.332031 -1.56641,-0.738281 -2.28516,-1.222656 -0.72266,-0.484375 -1.39453,-1.03125 -2.00781,-1.644532 -0.61328,-0.617187 -1.16406,-1.285156 -1.644528,-2.007812 -0.48438,-0.722656 -0.89063,-1.484375 -1.22266,-2.285156 -0.33203,-0.804688 -0.58594,-1.632813 -0.75391,-2.484375 -0.16796,-0.851563 -0.2539,-1.710938 -0.2539,-2.582031 0,-0.867188 0.0859,-1.730469 0.2539,-2.582032 0.16797,-0.851562 0.42188,-1.679687 0.75391,-2.480468 0.33203,-0.804688 0.73828,-1.566407 1.22266,-2.289063 0.480468,-0.722656 1.031248,-1.390625 1.644528,-2.003906 0.61328,-0.617188 1.28515,-1.164063 2.0039,-1.648438 0.72266,-0.480469 1.48829,-0.890625 2.28907,-1.222656 0.80468,-0.332031 1.63281,-0.582031 2.48437,-0.753906 0.85156,-0.167969 1.71094,-0.253907 2.58203,-0.253907 0.86719,0 1.72656,0.08594 2.58203,0.253907 0.85157,0.171875 1.67969,0.421875 2.48047,0.753906 0.80469,0.332031 1.56641,0.742187 2.28906,1.222656 0.72266,0.484375 1.39063,1.03125 2.00391,1.648438 0.61719,0.613281 1.16406,1.28125 1.64844,2.003906 0.48047,0.722656 0.89062,1.484375 1.22265,2.289063 0.33204,0.800781 0.58204,1.628906 0.75391,2.480468 0.16797,0.851563 0.25391,1.714844 0.25391,2.582032 z m -3.59766,0 c 0,-0.632813 -0.0625,-1.261719 -0.18359,-1.882813 -0.125,-0.621094 -0.3086,-1.222656 -0.55078,-1.808594 -0.24219,-0.585937 -0.53907,-1.140625 -0.89063,-1.667969 -0.35156,-0.527343 -0.75391,-1.015624 -1.19922,-1.460937 -0.44922,-0.449219 -0.9375,-0.851563 -1.46484,-1.203125 -0.52735,-0.351562 -1.08203,-0.648438 -1.66797,-0.890625 -0.58594,-0.242187 -1.1875,-0.425781 -1.80859,-0.546875 -0.6211,-0.125 -1.25,-0.1875 -1.88282,-0.1875 -0.63281,0 -1.26172,0.0625 -1.88281,0.1875 -0.62109,0.121094 -1.22266,0.304688 -1.80859,0.546875 -0.58594,0.242187 -1.14063,0.539063 -1.66797,0.890625 -0.52734,0.351562 -1.01563,0.753906 -1.46484,1.203125 -0.44532,0.445313 -0.84766,0.933594 -1.19922,1.460937 -0.35157,0.527344 -0.64844,1.082032 -0.89063,1.667969 -0.24219,0.585938 -0.42578,1.1875 -0.55078,1.808594 -0.12109,0.621094 -0.18359,1.25 -0.18359,1.882813 0,0.632812 0.0625,1.261718 0.18359,1.882812 0.125,0.621094 0.30859,1.226562 0.55078,1.808594 0.24219,0.585937 0.53906,1.144531 0.89063,1.667968 0.35156,0.527344 0.7539,1.015626 1.19922,1.464844 0.44921,0.445313 0.9375,0.847656 1.46484,1.199219 0.52734,0.351563 1.08203,0.648437 1.66797,0.890625 0.58593,0.242188 1.1875,0.425781 1.80859,0.550781 0.62109,0.121094 1.25,0.183594 1.88281,0.183594 0.63282,0 1.26172,-0.0625 1.88282,-0.183594 0.62109,-0.125 1.22265,-0.308593 1.80859,-0.550781 0.58594,-0.242188 1.14062,-0.539062 1.66797,-0.890625 0.52734,-0.351563 1.01562,-0.753906 1.46484,-1.199219 0.44531,-0.449218 0.84766,-0.9375 1.19922,-1.464844 0.35156,-0.523437 0.64844,-1.082031 0.89063,-1.667968 0.24218,-0.582032 0.42578,-1.1875 0.55078,-1.808594 0.12109,-0.621094 0.18359,-1.25 0.18359,-1.882812 z m 0,0"
     fill-opacity="1"
     fill-rule="nonzero"
     id="path25" />
  <path
     fill="#03989e"
     d="m 120.17284,45.028128 c 0,0.632812 -0.0625,1.261718 -0.18359,1.882812 -0.125,0.621094 -0.3086,1.226562 -0.55078,1.808594 -0.24219,0.585937 -0.53907,1.144531 -0.89063,1.667968 -0.35156,0.527344 -0.75391,1.015626 -1.19922,1.464844 -0.44922,0.445313 -0.9375,0.847656 -1.46484,1.199219 -0.52735,0.351563 -1.08203,0.648437 -1.66797,0.890625 -0.58594,0.242188 -1.1875,0.425781 -1.80859,0.550781 -0.6211,0.121094 -1.25,0.183594 -1.88282,0.183594 -0.63281,0 -1.26172,-0.0625 -1.88281,-0.183594 -0.62109,-0.125 -1.22266,-0.308593 -1.80859,-0.550781 -0.58594,-0.242188 -1.14063,-0.539062 -1.66797,-0.890625 -0.52734,-0.351563 -1.01563,-0.753906 -1.46484,-1.199219 -0.44532,-0.449218 -0.84766,-0.9375 -1.19922,-1.464844 -0.35157,-0.523437 -0.64844,-1.082031 -0.89063,-1.667968 -0.24219,-0.582032 -0.42578,-1.1875 -0.55078,-1.808594 -0.12109,-0.621094 -0.18359,-1.25 -0.18359,-1.882812 0,-0.632813 0.0625,-1.261719 0.18359,-1.882813 0.125,-0.621094 0.30859,-1.222656 0.55078,-1.808594 0.24219,-0.585937 0.53906,-1.140625 0.89063,-1.667969 0.35156,-0.527343 0.7539,-1.015624 1.19922,-1.460937 0.44921,-0.449219 0.9375,-0.851563 1.46484,-1.203125 0.52734,-0.351562 1.08203,-0.648438 1.66797,-0.890625 0.58593,-0.242187 1.1875,-0.425781 1.80859,-0.546875 0.62109,-0.125 1.25,-0.1875 1.88281,-0.1875 0.63282,0 1.26172,0.0625 1.88282,0.1875 0.62109,0.121094 1.22265,0.304688 1.80859,0.546875 0.58594,0.242187 1.14062,0.539063 1.66797,0.890625 0.52734,0.351562 1.01562,0.753906 1.46484,1.203125 0.44531,0.445313 0.84766,0.933594 1.19922,1.460937 0.35156,0.527344 0.64844,1.082032 0.89063,1.667969 0.24218,0.585938 0.42578,1.1875 0.55078,1.808594 0.12109,0.621094 0.18359,1.25 0.18359,1.882813 z m 0,0"
     fill-opacity="1"
     fill-rule="nonzero"
     id="path26"
     style="stroke:#000000;stroke-opacity:1" />
  <path
     fill="#103c79"
     d="m 145.18456,85.520315 c 0,0.871094 -0.082,1.730469 -0.25391,2.582031 -0.16797,0.851563 -0.41797,1.679688 -0.7539,2.484375 -0.33203,0.800781 -0.73828,1.566407 -1.22266,2.289063 -0.48047,0.71875 -1.03125,1.390625 -1.64453,2.003906 -0.61328,0.613281 -1.28125,1.164062 -2.00391,1.644531 -0.72265,0.484375 -1.48828,0.890625 -2.28906,1.222657 -0.80469,0.332031 -1.62891,0.585937 -2.48437,0.753906 -0.85157,0.171875 -1.71094,0.253906 -2.58204,0.253906 -0.86718,0 -1.72656,-0.08203 -2.58203,-0.253906 -0.85156,-0.167969 -1.67968,-0.421875 -2.48047,-0.753906 -0.80468,-0.332032 -1.5664,-0.738282 -2.28906,-1.222657 -0.72265,-0.480469 -1.39062,-1.03125 -2.0039,-1.644531 -0.61329,-0.613281 -1.16407,-1.285156 -1.64454,-2.003906 -0.48437,-0.722656 -0.89062,-1.488282 -1.22656,-2.289063 -0.33203,-0.804687 -0.58203,-1.632812 -0.75,-2.484375 -0.17187,-0.851562 -0.2539,-1.710937 -0.2539,-2.582031 0,-0.867187 0.082,-1.726563 0.2539,-2.582031 0.16797,-0.851563 0.41797,-1.679688 0.75,-2.480469 0.33594,-0.804687 0.74219,-1.566406 1.22656,-2.289063 0.48047,-0.722656 1.03125,-1.390624 1.64454,-2.003906 0.61328,-0.617187 1.28125,-1.164062 2.0039,-1.648437 0.72266,-0.480469 1.48438,-0.890625 2.28906,-1.222657 0.80079,-0.332031 1.62891,-0.582031 2.48047,-0.75 0.85547,-0.171874 1.71485,-0.257812 2.58203,-0.257812 0.8711,0 1.73047,0.08594 2.58204,0.257812 0.85546,0.167969 1.67968,0.417969 2.48437,0.75 0.80078,0.332032 1.56641,0.742188 2.28906,1.222657 0.72266,0.484375 1.39063,1.03125 2.00391,1.648437 0.61328,0.613282 1.16406,1.28125 1.64453,2.003906 0.48438,0.722657 0.89063,1.484376 1.22266,2.289063 0.33593,0.800781 0.58593,1.628906 0.7539,2.480469 0.17188,0.855468 0.25391,1.714844 0.25391,2.582031 z m -3.58203,0.02344 c -0.004,-0.636718 -0.0625,-1.261718 -0.1875,-1.886718 -0.125,-0.621094 -0.3086,-1.226563 -0.55078,-1.8125 -0.24219,-0.585941 -0.53907,-1.140628 -0.89063,-1.667972 -0.35156,-0.527344 -0.7539,-1.015625 -1.20312,-1.464844 -0.44922,-0.449219 -0.9336,-0.847656 -1.46094,-1.199219 -0.52734,-0.355468 -1.08594,-0.652343 -1.67188,-0.894531 -0.58593,-0.242187 -1.1914,-0.425781 -1.8125,-0.550781 -0.62109,-0.121094 -1.25,-0.183594 -1.88281,-0.183594 -0.63672,0 -1.26172,0.0625 -1.88672,0.183594 -0.62109,0.125 -1.22656,0.308594 -1.8125,0.550781 -0.58593,0.242188 -1.14062,0.539063 -1.66797,0.894531 -0.52734,0.351563 -1.01562,0.75 -1.46484,1.199219 -0.44922,0.449219 -0.84766,0.9375 -1.19922,1.464844 -0.35156,0.527344 -0.65234,1.082031 -0.89453,1.667969 -0.24219,0.585937 -0.42578,1.191406 -0.55078,1.8125 -0.12109,0.625 -0.18359,1.25 -0.18359,1.886718 0,0.632813 0.0625,1.261719 0.18359,1.882813 0.125,0.621094 0.30859,1.226563 0.55078,1.8125 0.24219,0.585937 0.54297,1.144531 0.89453,1.671875 0.35156,0.527344 0.75,1.011719 1.19922,1.460938 0.44922,0.449218 0.9375,0.851562 1.46484,1.203124 0.52735,0.351563 1.08204,0.648438 1.66797,0.890626 0.58594,0.242187 1.19141,0.425781 1.8125,0.550781 0.625,0.125 1.25,0.183593 1.88672,0.183593 0.63281,0 1.26172,-0.05859 1.88281,-0.183593 0.6211,-0.125 1.22657,-0.308594 1.8125,-0.550781 0.58594,-0.242188 1.14454,-0.539063 1.67188,-0.890626 0.52734,-0.351562 1.01172,-0.753906 1.46094,-1.203124 0.44922,-0.449219 0.85156,-0.933594 1.20312,-1.460938 0.35156,-0.527344 0.64844,-1.085938 0.89063,-1.671875 0.24218,-0.585937 0.42578,-1.191406 0.55078,-1.8125 0.125,-0.621094 0.18359,-1.25 0.1875,-1.882813 z m 0,0"
     fill-opacity="1"
     fill-rule="nonzero"
     id="path29" />
  <path
     fill="#03989e"
     d="m 141.60253,85.543752 c -0.004,0.632813 -0.0625,1.261719 -0.1875,1.882813 -0.125,0.621094 -0.3086,1.226563 -0.55078,1.8125 -0.24219,0.585937 -0.53907,1.140625 -0.89063,1.667969 -0.35156,0.53125 -0.7539,1.015625 -1.20312,1.464844 -0.44922,0.449218 -0.9336,0.851562 -1.46094,1.203124 -0.52734,0.351563 -1.08594,0.648438 -1.67188,0.890626 -0.58593,0.242187 -1.1914,0.425781 -1.8125,0.550781 -0.62109,0.125 -1.25,0.183593 -1.88281,0.183593 -0.63672,0 -1.26172,-0.05859 -1.88672,-0.183593 -0.62109,-0.125 -1.22656,-0.308594 -1.8125,-0.550781 -0.58593,-0.242188 -1.14062,-0.539063 -1.66797,-0.890626 -0.52734,-0.351562 -1.01562,-0.753906 -1.46484,-1.203124 -0.44922,-0.449219 -0.84766,-0.933594 -1.19922,-1.460938 -0.35156,-0.53125 -0.65234,-1.085938 -0.89453,-1.671875 -0.24219,-0.585937 -0.42578,-1.191406 -0.55078,-1.8125 -0.12109,-0.621094 -0.18359,-1.25 -0.18359,-1.882813 0,-0.636718 0.0625,-1.261718 0.18359,-1.886718 0.125,-0.621094 0.30859,-1.226563 0.55078,-1.8125 0.24219,-0.585938 0.54297,-1.140625 0.89453,-1.667969 0.35156,-0.527344 0.75,-1.015625 1.19922,-1.464844 0.44922,-0.449219 0.9375,-0.847656 1.46484,-1.199219 0.52735,-0.355468 1.08204,-0.652343 1.66797,-0.894531 0.58594,-0.242187 1.19141,-0.425781 1.8125,-0.550781 0.625,-0.121094 1.25,-0.183594 1.88672,-0.183594 0.63281,0 1.26172,0.0625 1.88281,0.183594 0.6211,0.125 1.22657,0.308594 1.8125,0.550781 0.58594,0.242188 1.14454,0.539063 1.67188,0.894531 0.52734,0.351563 1.01172,0.75 1.46094,1.199219 0.44922,0.449219 0.85156,0.9375 1.20312,1.464844 0.35156,0.527344 0.64844,1.082031 0.89063,1.667969 0.24218,0.585937 0.42578,1.191406 0.55078,1.8125 0.125,0.625 0.18359,1.25 0.1875,1.886718 z m 0,0"
     fill-opacity="1"
     fill-rule="nonzero"
     id="path30"
     style="stroke:#000000;stroke-opacity:1" />
  <path
     fill="#f06525"
     d="m 107.84472,96.078909 24.28515,29.199221 c 0.1211,0.14062 0.20703,0.30078 0.26563,0.47656 0.0547,0.17578 0.0742,0.35938 0.0586,0.54297 -0.0156,0.18359 -0.0664,0.35937 -0.15234,0.52344 -0.0859,0.16406 -0.19922,0.30859 -0.33985,0.42578 l -5.49218,4.59765 -86.753908,72.75 -2.847656,-3.54297 -28.882813,-34.60937 c -0.273437,-0.32813 -0.246093,-0.62891 0.08203,-0.89453 l 4.882813,-3.97656 c 0.136719,-0.10938 0.25,-0.24219 0.332031,-0.39844 0.08203,-0.15625 0.132813,-0.32422 0.148438,-0.5 0.01563,-0.17578 -0.0039,-0.34766 -0.05859,-0.51563 -0.05078,-0.16797 -0.136719,-0.3164 -0.25,-0.45312 l -10,-11.65235 c -0.164062,-0.1914 -0.285156,-0.40625 -0.363281,-0.64453 -0.07422,-0.24218 -0.105469,-0.48828 -0.08203,-0.74218 0.01953,-0.25 0.08594,-0.48829 0.203124,-0.71485 0.117188,-0.22656 0.273438,-0.42187 0.464844,-0.58594 l 15.83983,-13.46484 c 0.105469,-0.0898 0.226562,-0.15625 0.355469,-0.19531 0.132812,-0.043 0.269531,-0.0586 0.40625,-0.0469 0.136719,0.0117 0.265625,0.0508 0.390625,0.11328 0.121094,0.0625 0.226562,0.14844 0.3125,0.25391 3.515625,4.21094 7.113281,8.53516 10.796875,12.97266 0.898437,1.07422 1.425781,0.26172 1.898437,-0.59375 0.753906,-0.38672 1.371094,-0.89063 1.855469,-1.51563 l 9.617187,-7.98437 c 0.308594,-0.25391 0.332032,-0.52735 0.06641,-0.82032 l -9.125,-10.32421 c -2.535157,-2.37891 -2.398438,-4.56641 0.414062,-6.57032 5.109375,-3.61328 9.75,-7.38671 13.917969,-11.32421 0.152344,-0.14454 0.328125,-0.25 0.523438,-0.32422 0.199218,-0.0703 0.402343,-0.0977 0.609374,-0.082 0.210938,0.0117 0.40625,0.0664 0.59375,0.16406 0.1875,0.0977 0.34375,0.22656 0.476563,0.38672 l 10.726563,13.08984 c 0.210937,0.25781 0.445312,0.28125 0.707031,0.0625 L 76.07519,108.70001 c 0.140625,-0.125 0.21875,-0.27734 0.234375,-0.46484 0.01172,-0.1875 -0.03906,-0.35156 -0.160156,-0.49609 L 65.168937,95.106252 c -0.109375,-0.128906 -0.191406,-0.269531 -0.246094,-0.433593 -0.05078,-0.160157 -0.07031,-0.324219 -0.05859,-0.492188 0.01562,-0.167969 0.0625,-0.328125 0.140624,-0.480469 0.07813,-0.148437 0.183594,-0.277343 0.3125,-0.386718 L 81.485342,79.78594 c 0.17188,-0.144531 0.36719,-0.25 0.58203,-0.320312 0.21485,-0.06641 0.4336,-0.08984 0.65625,-0.06641 0.22657,0.01953 0.4375,0.08203 0.63282,0.1875 0.19921,0.105469 0.36718,0.246094 0.51171,0.417969 l 10.23829,12.644531 c 0.23828,0.304688 0.5039,0.324219 0.80078,0.0625 l 4.26953,-3.730469 c 0.20703,-0.179687 0.4414,-0.3125 0.69922,-0.398437 0.257808,-0.08594 0.523428,-0.117187 0.796868,-0.09375 0.27344,0.01953 0.53125,0.09375 0.77344,0.21875 0.24609,0.128906 0.45312,0.292969 0.63281,0.503906 z m 0,0"
     fill-opacity="1"
     fill-rule="nonzero"
     id="path31"
     style="stroke:#000000;stroke-opacity:1" />
  <path
     fill="#6f4380"
     d="m 281.91424,154.28748 c -0.0195,0.0352 -0.043,0.0742 -0.0625,0.11719 -0.0351,0.082 -0.0976,0.125 -0.1914,0.125 -27.76953,0.11328 -55.53516,0.13672 -83.30469,0.0742 -0.33594,0 -0.53906,0.16406 -0.60156,0.49609 l -0.15625,0.78906 c -0.0508,0.25391 -0.10547,0.25782 -0.17188,0.0117 -0.0898,-0.35156 -0.25,-0.53906 -0.48437,-0.55859 -0.22266,-12.96484 -0.92578,-25.93359 -2.10938,-38.91016 -1.21093,-13.28906 1.96094,-12.875 13.5,-11.85156 0.23828,0.0195 0.47266,-0.004 0.70313,-0.0703 0.23047,-0.0664 0.44531,-0.17188 0.63672,-0.31641 0.1914,-0.14062 0.35156,-0.3164 0.48047,-0.51953 0.1289,-0.20312 0.21875,-0.42187 0.26562,-0.65625 0.58203,-2.86719 1.02344,-9.300783 4.02734,-10.851564 4.42969,-2.289063 9.03907,-2.945313 13.82422,-1.960938 10.57813,2.171875 -2.09765,15.554692 16.07422,11.937502 0.32031,-0.0625 0.46875,-0.26172 0.44141,-0.58984 -1.21485,-13.054693 1.76953,-13.898443 13.75,-13.003912 8.02344,0.601563 7.60156,6.066407 7.64453,12.285162 0.004,0.23828 0.0508,0.46875 0.14062,0.6875 0.0859,0.21875 0.21485,0.41406 0.37891,0.58984 0.16406,0.17187 0.35547,0.30469 0.57031,0.40625 0.21875,0.10156 0.44532,0.16016 0.6836,0.17188 4.98828,0.30859 14.65625,-0.98047 15.27734,5.76953 0.65625,7.1914 -0.39062,16.01953 -0.47266,21.17578 -0.125,6.65234 -0.48437,13.37109 -0.11718,20.01172 0.0859,1.55468 -0.15625,3.10156 -0.72657,4.64062 z m 0,0"
     fill-opacity="1"
     fill-rule="nonzero"
     id="path32"
     style="stroke:#000000;stroke-opacity:1" />
  <path
     fill="#103c79"
     d="m 149.0244,138.80547 c 0.86328,-5.17578 -2.91015,-3.28125 -5.68359,-3.75391 -10.82813,-16.39843 10.26172,-30.78124 20.87891,-16.76562 2.1914,2.89453 2.97265,6.09375 2.33984,9.59375 -1.53906,8.54297 -8.98438,12.64453 -17.53516,10.92578 z m 14.01563,-12.79297 c 0,-0.63281 -0.0625,-1.25781 -0.1875,-1.8789 -0.1211,-0.6211 -0.30469,-1.22657 -0.54688,-1.8125 -0.24218,-0.58594 -0.54297,-1.14063 -0.89453,-1.66797 -0.35156,-0.52735 -0.75,-1.01172 -1.19922,-1.46094 -0.44922,-0.44922 -0.93359,-0.84766 -1.46093,-1.19922 -0.52735,-0.35156 -1.08204,-0.65234 -1.66797,-0.89453 -0.58594,-0.24219 -1.1875,-0.42187 -1.8125,-0.54687 -0.6211,-0.125 -1.2461,-0.1875 -1.87891,-0.1875 -0.63672,0 -1.26172,0.0625 -1.88281,0.1875 -0.6211,0.125 -1.22656,0.30468 -1.8125,0.54687 -0.58594,0.24219 -1.14063,0.54297 -1.66797,0.89453 -0.52734,0.35156 -1.01172,0.75 -1.46094,1.19922 -0.44922,0.44922 -0.84765,0.93359 -1.19922,1.46094 -0.35156,0.52734 -0.64843,1.08203 -0.89062,1.66797 -0.2461,0.58593 -0.42578,1.1914 -0.55078,1.8125 -0.125,0.62109 -0.1836,1.24609 -0.1836,1.8789 0,0.63672 0.0586,1.26172 0.1836,1.88281 0.125,0.6211 0.30468,1.22657 0.55078,1.8125 0.24219,0.58594 0.53906,1.14063 0.89062,1.66797 0.35157,0.52735 0.75,1.01172 1.19922,1.46094 0.44922,0.44922 0.9336,0.84766 1.46094,1.19922 0.52734,0.35156 1.08203,0.64844 1.66797,0.89062 0.58594,0.2461 1.1914,0.42579 1.8125,0.55079 0.62109,0.125 1.24609,0.1875 1.88281,0.1875 0.63281,0 1.25781,-0.0625 1.87891,-0.1875 0.625,-0.125 1.22656,-0.30469 1.8125,-0.55079 0.58593,-0.24218 1.14062,-0.53906 1.66797,-0.89062 0.52734,-0.35156 1.01171,-0.75 1.46093,-1.19922 0.44922,-0.44922 0.84766,-0.93359 1.19922,-1.46094 0.35156,-0.52734 0.65235,-1.08203 0.89453,-1.66797 0.24219,-0.58593 0.42578,-1.1914 0.54688,-1.8125 0.125,-0.62109 0.1875,-1.24609 0.1875,-1.88281 z m 0,0"
     fill-opacity="1"
     fill-rule="nonzero"
     id="path33" />
  <path
     fill="#03989e"
     d="m 163.04003,126.0125 c 0,0.63672 -0.0625,1.26172 -0.1875,1.88281 -0.1211,0.6211 -0.30469,1.22657 -0.54688,1.8125 -0.24218,0.58594 -0.54297,1.14063 -0.89453,1.66797 -0.35156,0.52735 -0.75,1.01172 -1.19922,1.46094 -0.44922,0.44922 -0.93359,0.84766 -1.46093,1.19922 -0.52735,0.35156 -1.08204,0.64844 -1.66797,0.89062 -0.58594,0.2461 -1.1875,0.42579 -1.8125,0.55079 -0.6211,0.125 -1.2461,0.1875 -1.87891,0.1875 -0.63672,0 -1.26172,-0.0625 -1.88281,-0.1875 -0.6211,-0.125 -1.22656,-0.30469 -1.8125,-0.55079 -0.58594,-0.24218 -1.14063,-0.53906 -1.66797,-0.89062 -0.52734,-0.35156 -1.01172,-0.75 -1.46094,-1.19922 -0.44922,-0.44922 -0.84765,-0.93359 -1.19922,-1.46094 -0.35156,-0.52734 -0.64843,-1.08203 -0.89062,-1.66797 -0.2461,-0.58593 -0.42578,-1.1914 -0.55078,-1.8125 -0.125,-0.62109 -0.1836,-1.24609 -0.1836,-1.88281 0,-0.63281 0.0586,-1.25781 0.1836,-1.8789 0.125,-0.6211 0.30468,-1.22657 0.55078,-1.8125 0.24219,-0.58594 0.53906,-1.14063 0.89062,-1.66797 0.35157,-0.52735 0.75,-1.01172 1.19922,-1.46094 0.44922,-0.44922 0.9336,-0.84766 1.46094,-1.19922 0.52734,-0.35156 1.08203,-0.65234 1.66797,-0.89453 0.58594,-0.24219 1.1914,-0.42187 1.8125,-0.54687 0.62109,-0.125 1.24609,-0.1875 1.88281,-0.1875 0.63281,0 1.25781,0.0625 1.87891,0.1875 0.625,0.125 1.22656,0.30468 1.8125,0.54687 0.58593,0.24219 1.14062,0.54297 1.66797,0.89453 0.52734,0.35156 1.01171,0.75 1.46093,1.19922 0.44922,0.44922 0.84766,0.93359 1.19922,1.46094 0.35156,0.52734 0.65235,1.08203 0.89453,1.66797 0.24219,0.58593 0.42578,1.1914 0.54688,1.8125 0.125,0.62109 0.1875,1.24609 0.1875,1.8789 z m 0,0"
     fill-opacity="1"
     fill-rule="nonzero"
     id="path34"
     style="stroke:#000000;stroke-opacity:1" />
  <path
     fill="#5271ff"
     d="m 128.05175,135.0711 15.28906,-0.0195 c 2.77344,0.47266 6.54687,-1.42187 5.68359,3.75391 l 0.0312,14.40625 c 0,0.25 0.0898,0.46484 0.26953,0.64453 0.17969,0.17578 0.39454,0.26172 0.64844,0.26172 l 16.07031,-0.11719 c 0.10938,-0.004 0.20313,-0.043 0.28125,-0.125 0.0742,-0.082 0.11329,-0.17578 0.10938,-0.28515 l -0.46484,-17.03125 c -0.008,-0.37891 0.14843,-0.67188 0.46484,-0.875 2.01172,-1.3086 15.94531,-0.42188 19.34766,-0.46485 l 3.125,0.0547 c 0.27734,0 0.51953,0.10156 0.71875,0.29688 0.19921,0.19531 0.30468,0.43359 0.3125,0.71484 l 0.24218,7.22266 -0.39843,9.63671 c -0.008,0.15625 0.0195,0.30469 0.0742,0.44922 0.0586,0.14453 0.14454,0.27344 0.25391,0.37891 0.11328,0.10937 0.24219,0.1875 0.39063,0.24219 0.14453,0.0508 0.29687,0.0703 0.44921,0.0586 l 5.32813,-0.39844 c 1.32031,0.59766 2.1875,0.89453 2.60156,0.89453 13.55469,-0.0625 26.92969,-0.0156 40.125,0.13672 -0.51953,16.45703 -0.55859,30.49219 -0.11719,42.10547 0.1211,3.29688 0.10547,5.69141 -0.043,7.1836 l -120.66407,-0.0234 c -0.35156,0 -0.60156,-0.15625 -0.75,-0.47266 -0.65234,-1.45703 -0.0195,-3.08984 -0.0195,-4.1875 0.0117,-14.44531 0.004,-29.49219 -0.0312,-45.13281 0,-0.125 0.043,-0.23047 0.13281,-0.31641 0.0898,-0.0859 0.19532,-0.1289 0.32032,-0.125 l 5.97656,0.17969 c 1.21094,0.0352 1.79687,-0.55469 1.76172,-1.77344 l -0.52735,-16.3125 c -0.0117,-0.42187 0.19141,-0.65625 0.61329,-0.70703 z m 0,0"
     fill-opacity="1"
     fill-rule="nonzero"
     id="path35"
     style="stroke:#000000;stroke-opacity:1" />
  <path
     fill="#f06525"
     d="m 305.16503,138.46953 3.18359,1.63282 c 1.83594,2.11718 2.4961,4.66015 1.98438,7.63281 -1.75391,10.10547 16.99609,-0.56641 17.25,10.73828 0.13672,6.11328 -0.57032,13.45312 -0.6875,18.27344 -0.16797,6.96093 -0.21875,13.91797 -0.15625,20.8789 0.0625,7.5586 -13.91016,6.37891 -20.07813,6.09375 -1.17187,-0.5039 -2.55469,-0.6289 -4.14453,-0.36718 -19.21875,0 -38.40234,0.39453 -57.55469,1.17968 -1.99218,0.0859 -4.10156,-0.78906 -6.11718,-0.33593 0.14843,-1.49219 0.16406,-3.88672 0.043,-7.1836 -0.4414,-11.61328 -0.40234,-25.64844 0.11719,-42.10547 14.29297,0.17578 28.41797,0.19922 42.37891,0.0742 2.16406,-0.0195 2.0664,-1.2539 1.6875,-2.9414 l 5.39844,-0.30469 c 0.40234,-0.0234 0.57031,-0.23047 0.50781,-0.625 -0.75781,-4.79688 -1.66797,-12.44141 4.82812,-13.12891 3.73438,-0.39844 7.51953,-0.23828 11.35938,0.48828 z m 0,0"
     fill-opacity="1"
     fill-rule="nonzero"
     id="path36"
     style="stroke:#000000;stroke-opacity:1" />
  <path
     fill="#03989e"
     d="m 190.18065,143.5086 5.83203,9.95312 c -0.008,0.14844 0.082,0.28516 0.26563,0.41406 l -5.32813,0.39844 c -0.15234,0.0117 -0.30468,-0.008 -0.44921,-0.0586 -0.14844,-0.0547 -0.27735,-0.13282 -0.39063,-0.24219 -0.10937,-0.10547 -0.19531,-0.23438 -0.25391,-0.37891 -0.0547,-0.14453 -0.082,-0.29297 -0.0742,-0.44922 z m 0,0"
     fill-opacity="1"
     fill-rule="nonzero"
     id="path37" />
</svg>
